<?xml version="1.0" encoding="UTF-8"?>
<svg id="Layer_1" data-name="Layer 1" xmlns="http://www.w3.org/2000/svg" viewBox="0 0 442.15 307.58">
  <defs>
    <style>
      .cls-1 {
        fill: #fff;
      }
    </style>
  </defs>
  <path class="cls-1" d="M442.15,207.65c-5.06,53.04-48.21,96.12-102.3,99.93H86.73c-83.49-7.94-117.92-111.19-52.62-165.65,10.64-8.88,35.34-21.37,49.2-21.37h14.25c.18-25.03,6.88-49.28,21.25-69.91,16.69-23.95,44.08-42.3,73.02-48.19,63.03-12.82,125.1,25.61,139.84,87.29,43.48.3,83.74,25.88,101.11,65.24,4.51,10.22,8.47,24.49,9.35,35.58v17.07ZM196.59,214.19c-3.82,4.27-11.72,6.96-17.38,7.17-35.93,1.32-36.98-61.98,1.74-58.98,8.37.65,15.4,5.23,19.38,12.44l1.25.36,15.68-11.06c2.55-4-13.21-15.77-16.87-17.53-40.65-19.68-83.93,20.06-68.28,62.37,14.11,38.18,65.64,44.77,87.19,10.21l-18.52-11.5c-1.88,1.84-2.47,4.6-4.19,6.52h0ZM268.39,142.16c-67.96,6.65-51.76,113.32,15.77,98.4,59.21-13.08,45.97-104.44-15.77-98.4ZM322.97,258.88h32.82v-9.39h-17.27c4.77-5.93,15.27-7.05,16.35-15.88,1.41-11.52-11.2-13.46-20.03-12.09-2.76.43-11.81,3.49-10.91,6.88l6.22,5.61c4.28-3.57,11.47-7.19,13.4.41-7.97,8.33-21.96,9.72-20.58,24.45h0Z"/>
  <path class="cls-1" d="M268.34,162.61c40.28-6.26,41.35,61.86,2.39,58.69-30.41-2.47-30.72-54.29-2.39-58.69Z"/>
</svg>