<?xml version="1.0" encoding="UTF-8"?>
<svg id="Layer_1" data-name="Layer 1" xmlns="http://www.w3.org/2000/svg" viewBox="0 0 159.66 208.79">
  <defs>
    <style>
      .cls-1 {
        fill: #fff;
      }
    </style>
  </defs>
  <path class="cls-1" d="M159.66,125.15v10.6c-.7,2.95-.81,6.07-1.37,9.05-5.91,31.41-31.83,56.86-64,62.57-3.05.54-6.24.66-9.26,1.34-3.55-.18-7.32.24-10.84,0-56.69-3.92-89.82-60.87-66.79-111.56C23.06,62.66,56.05,34.78,75,1.81c3.06-2.49,6.47-2.41,9.42.21,21.19,38.47,71.87,77.52,75.25,123.12ZM80.01,19.16l-.86.26c-12.37,18.91-27.79,35.65-41.17,53.83-18.46,25.08-33.36,50.65-19.99,82.17,22.51,53.1,99.94,53.45,122.99.58,13.81-31.69-1.17-57.49-19.75-82.75-13.42-18.25-28.99-34.99-41.21-54.08h0Z"/>
  <path class="cls-1" d="M111.6,91.41c6.04-.96,10.32,5.36,6.79,10.3l-68.18,66.65c-6.26,4.29-13.78-3.06-9.39-9.18l67.96-66.45c.74-.66,1.85-1.16,2.82-1.32h0Z"/>
  <path class="cls-1" d="M97.86,143.61c24.74-2.09,29.85,33.38,6.36,38.41-28.04,6.01-33.92-36.09-6.36-38.41ZM98.25,156.63c-8.23,1.45-6.28,14.43,2.73,12.85,8.23-1.45,6.28-14.44-2.73-12.85Z"/>
  <path class="cls-1" d="M57.83,78.39c24.74-2.09,29.85,33.38,6.36,38.42-28.04,6.01-33.92-36.09-6.36-38.42ZM58.23,91.41c-8.04,1.27-6.66,14.33,2.72,12.85,8.04-1.27,6.66-14.33-2.72-12.85Z"/>
</svg>