<?xml version="1.0" encoding="UTF-8"?>
<svg id="Layer_1" data-name="Layer 1" xmlns="http://www.w3.org/2000/svg" viewBox="0 0 208.63 191.67">
  <defs>
    <style>
      .cls-1 {
        fill: #fff;
      }
    </style>
  </defs>
  <g id="WTcz46.tif">
    <g>
      <path class="cls-1" d="M208.63,111.89v4.88c-2.45,5.13-9.35,8-14.38,10.25-12.59,5.64-28.97,9.85-42.8,10.12-40.72.8-67.81-31.76-112.17-18.94-10.44,3.02-14.95,7.05-23.74,12.08-8.58,4.92-17.06-2.45-12.66-11.03,4.01-7.81,27.1-16.94,35.57-18.97,33.04-7.93,54.38,3.22,84.06,13.65,22.95,8.06,40.79,7.45,63.18-2.38,5-2.2,10.76-6.89,16.18-6.14,3.51.49,5.47,3.48,6.75,6.48Z"/>
      <path class="cls-1" d="M131.69,191.67h-2.85c-2.44-.78-5.7-3.54-5.7-6.31v-24.62c-6.04,7.99-17.58.05-11.4-7.94,1.72-2.22,10.58-10.35,13.02-12.22,4.51-3.47,10.27-.73,12.05,4.25l.14,41.71c-.43,3-2.64,4.2-5.26,5.12Z"/>
      <path class="cls-1" d="M77.14,160.32l9.97-19.53c4.62-4,9.57-1.39,11.98,3.48l6.89,38.69c1.1,6.99-8.19,11.09-12.09,4.77-.97-1.57-1.11-3.27-1.5-5.01-1.16-5.19-1.89-10.62-2.64-15.88-3.75,4.1-4.71,13.59-10.96,14.88-8.99,1.85-9.39-10.02-13.86-14.88-.7,5.16-1.48,10.45-2.57,15.54-.61,2.83-.53,5.66-3.25,7.33-4.79,2.94-9.66-.86-9.65-5.97,2.97-12.9,3.91-27.02,7.04-39.78,1.06-4.3,3.55-5.95,8.04-5.03,3.61.74,4.17,3.29,5.62,6.19,2.49,4.97,4.68,10.15,6.98,15.2Z"/>
      <path class="cls-1" d="M22.59,172.54v13.64c0,.68-2.35,3.43-3.1,3.82-5.26,2.74-10.26-.49-10.75-6.24-1.1-12.79.62-27.51.29-40.44.6-2.29,2.93-4.2,5.25-4.52,4.22-.57,17.32-.41,21.35.56,12.76,3.08,17.49,18.31,8.34,27.9-1.86,1.95-7.55,5.28-10.19,5.28h-11.19ZM21.77,159.51h10.38c3.86,0,3.2-7.73-.41-7.73h-9.97v7.73Z"/>
      <path class="cls-1" d="M180.04,138.87c20.6-2.46,20.69,20.49,19.65,34.7-1.69,23.06-32.95,21.57-34.63,2.03-.48-5.57-.48-16.03,0-21.6.66-7.71,7.38-14.23,14.99-15.14ZM180.83,151.87c-2.02.46-2.88,2.81-3.09,4.64-.45,3.81-.39,11.94-.04,15.82.07.78.33,2.39.6,3.07,1.48,3.71,7.64,2.96,8.33-1.46.51-3.31.42-14.42.03-17.88-.36-3.11-2.69-4.9-5.82-4.19Z"/>
      <path class="cls-1" d="M48.15,46.07c27.68-2.87,33.13,38.23,6.29,42.92-29.77,5.21-35.33-39.92-6.29-42.92ZM48.94,59.08c-10.07,1.68-9.4,17.76,1.88,17.37,12.14-.42,10.5-19.44-1.88-17.37Z"/>
      <path class="cls-1" d="M140.15,12.29c25.84-3,28.73,36.87,3.14,38.14-24.03,1.19-27.29-35.34-3.14-38.14ZM140.53,24.48c-6.54,1.2-5.27,13.19,1.13,13.75,10.84.94,9.74-15.74-1.13-13.75Z"/>
      <path class="cls-1" d="M75.02.08c23.18-1.93,28.07,30.49,6.78,36.49C56.22,43.77,48.78,2.26,75.02.08ZM75.82,13.06c-7.97,1.08-4.43,15.07,3.49,10.44,5.84-3.41,2.75-11.29-3.49-10.44Z"/>
      <path class="cls-1" d="M155.62,72.12c24.07-2.65,29.44,32.47,6.62,37.56-25.87,5.77-32.72-34.68-6.62-37.56ZM156.01,84.31c-7.49,1.28-6.71,15.22,3.06,13.64,8.83-1.43,7.27-15.41-3.06-13.64Z"/>
      <path class="cls-1" d="M108.39,56.64c17.46-2.39,25.26,19.72,11.06,28.56-13.23,8.23-28.95-5.68-22.43-19.98,1.88-4.12,6.82-7.95,11.37-8.57ZM110.01,65.99c-7.55,1.21-7.66,12.73-.47,13.71,12.16,1.66,10.41-15.3.47-13.71Z"/>
      <path class="cls-1" d="M26.92,45.81c-15.26,15.26-37.74-9.58-20.99-22.41,15.73-12.05,34.6,8.8,20.99,22.41ZM13.52,28.95c-4.86.9-6.09,7.07-2.96,10.51,3.66,4.03,11.42,2.01,12.04-3.47s-4.12-7.95-9.07-7.04Z"/>
      <path class="cls-1" d="M194.3,33.85c16.6-1.3,18.86,24.43,2.32,25.94-17.38,1.59-19.44-24.59-2.32-25.94ZM192.08,43.65c-4.55,4.66,3.75,11.23,6.86,5.43,2.78-5.19-3.86-8.5-6.86-5.43Z"/>
      <path class="cls-1" d="M145.67,175.94c8.11-8.11,20.33,4.12,12.47,12.27-7.87,8.16-20.58-4.16-12.47-12.27Z"/>
    </g>
  </g>
</svg>