<?xml version="1.0" encoding="UTF-8"?>
<svg id="Layer_1" data-name="Layer 1" xmlns="http://www.w3.org/2000/svg" viewBox="0 0 208.63 191.67">
  <defs>
    <style>
      .cls-1 {
        fill: #fff;
      }
    </style>
  </defs>
  <g id="F04u2c.tif">
    <g>
      <path class="cls-1" d="M102.53,29.84c12.61-2.3,11.96,16.81,0,14.35-7.42-1.52-7.3-13.02,0-14.35Z"/>
      <path class="cls-1" d="M103.12,147.43c11.3-1.96,12.06,16.09-.16,14.52-7.58-.98-7.97-13.11.16-14.52Z"/>
      <path class="cls-1" d="M131.82,170.8c8.03-.9,11.67,10.66,4.17,14.16-10.84,5.06-15.09-12.93-4.17-14.16Z"/>
      <path class="cls-1" d="M166.29,159.96c-5.82,5.82-16.22-1.08-11.75-9.11,5.25-9.44,19.64,1.23,11.75,9.11Z"/>
      <path class="cls-1" d="M70.7,173.23c5.9-6.17,16.53,1.49,11.77,9.14-5.87,9.43-19.09-1.49-11.77-9.14Z"/>
      <path class="cls-1" d="M74.44,5.84c10.02-2.03,11.84,12.44,4.4,14.35-11.11,2.85-13.57-12.5-4.4-14.35Z"/>
      <path class="cls-1" d="M46.35,147.43c8.27-1.42,12.3,8.79,5.71,13.32-6.34,4.36-14.28-2.69-10.75-9.58.81-1.57,3.27-3.44,5.04-3.74Z"/>
      <path class="cls-1" d="M131.22,5.85c8.25-1.44,12.41,9.22,5.39,13.59-10.09,6.28-16.3-11.69-5.39-13.59Z"/>
      <path class="cls-1" d="M45.75,29.82c11.69-2.67,12.79,15.12,1.66,14.52-8.3-.45-9.2-12.8-1.66-14.52Z"/>
      <path class="cls-1" d="M158.71,29.82c12.24-2.83,12.66,15.31,1.64,14.54-8.27-.58-8.8-12.88-1.64-14.54Z"/>
      <g>
        <path class="cls-1" d="M26.33,100.43h-11.38v17.37c0,2.48-.59,4.37-1.76,5.65s-2.65,1.92-4.44,1.92-3.38-.63-4.52-1.9c-1.14-1.27-1.72-3.13-1.72-5.59v-47.29c0-2.73.63-4.69,1.88-5.86,1.26-1.17,3.25-1.76,5.98-1.76h15.94c4.71,0,8.34.36,10.88,1.09,2.51.7,4.68,1.86,6.51,3.47,1.83,1.62,3.21,3.6,4.16,5.94.95,2.34,1.42,4.98,1.42,7.91,0,6.25-1.92,10.98-5.77,14.21-3.85,3.22-9.58,4.83-17.2,4.83ZM23.31,72.31h-8.37v18.75h8.37c2.93,0,5.38-.31,7.34-.92,1.97-.61,3.47-1.62,4.5-3.01,1.03-1.39,1.55-3.22,1.55-5.48,0-2.71-.8-4.91-2.39-6.61-1.79-1.81-5.45-2.72-11.01-2.72Z"/>
        <path class="cls-1" d="M75.25,115.07l-9.83-39.09v42.35c0,2.34-.52,4.1-1.57,5.27-1.05,1.17-2.43,1.76-4.16,1.76s-3.04-.58-4.1-1.74c-1.06-1.16-1.59-2.92-1.59-5.29v-48.54c0-2.68.7-4.48,2.09-5.42,1.39-.93,3.28-1.4,5.65-1.4h3.85c2.32,0,4,.21,5.04.63s1.82,1.17,2.32,2.26c.5,1.09,1.07,2.86,1.72,5.31l8.91,33.6,8.91-33.6c.64-2.45,1.21-4.23,1.72-5.31.5-1.09,1.28-1.84,2.32-2.26,1.05-.42,2.73-.63,5.04-.63h3.85c2.37,0,4.25.47,5.65,1.4,1.4.94,2.09,2.74,2.09,5.42v48.54c0,2.34-.52,4.1-1.57,5.27s-2.45,1.76-4.21,1.76c-1.65,0-3-.59-4.06-1.76-1.06-1.17-1.59-2.93-1.59-5.27v-42.35l-9.83,39.09c-.64,2.54-1.17,4.4-1.57,5.59-.4,1.19-1.15,2.27-2.24,3.24-1.09.98-2.59,1.46-4.52,1.46-1.45,0-2.68-.31-3.68-.94-1-.63-1.79-1.43-2.34-2.41-.56-.98-1-2.06-1.32-3.24s-.65-2.42-.98-3.7Z"/>
        <path class="cls-1" d="M138.28,118.59v-38.08c-7.09,5.44-11.86,8.16-14.31,8.16-1.17,0-2.21-.47-3.12-1.4-.91-.93-1.36-2.01-1.36-3.24,0-1.42.45-2.47,1.34-3.14.89-.67,2.47-1.53,4.73-2.59,3.38-1.59,6.07-3.26,8.1-5.02,2.02-1.76,3.81-3.72,5.38-5.9s2.58-3.52,3.05-4.02c.47-.5,1.37-.75,2.68-.75,1.48,0,2.66.57,3.56,1.72.89,1.14,1.34,2.72,1.34,4.73v47.92c0,5.61-1.91,8.41-5.73,8.41-1.7,0-3.07-.57-4.1-1.72s-1.55-2.83-1.55-5.06Z"/>
        <path class="cls-1" d="M206.75,94.23c0,4.58-.28,8.51-.84,11.8-.56,3.29-1.59,6.28-3.1,8.96-1.9,3.29-4.35,5.83-7.37,7.62s-6.36,2.68-10.04,2.68c-4.24,0-8.04-1.2-11.4-3.6-3.36-2.4-5.89-5.72-7.6-9.96-.87-2.32-1.5-4.88-1.9-7.68s-.61-5.84-.61-9.1c0-4.21.22-8.01.67-11.38.45-3.38,1.14-6.28,2.09-8.7,1.65-4.02,4.04-7.08,7.18-9.19,3.14-2.11,6.88-3.16,11.24-3.16,2.87,0,5.48.47,7.83,1.4s4.4,2.3,6.17,4.1c1.77,1.8,3.27,4.02,4.5,6.67,2.12,4.6,3.18,11.12,3.18,19.54ZM195.28,93.4c0-5.11-.31-9.28-.92-12.53-.61-3.25-1.65-5.71-3.1-7.37-1.45-1.66-3.46-2.49-6.03-2.49-3.68,0-6.24,1.86-7.68,5.57-1.44,3.71-2.16,9.43-2.16,17.16,0,5.25.31,9.54.92,12.89.61,3.35,1.65,5.88,3.1,7.6,1.45,1.72,3.42,2.57,5.9,2.57s4.58-.89,6.03-2.68c1.45-1.79,2.47-4.34,3.05-7.66.59-3.32.88-7.67.88-13.06Z"/>
      </g>
    </g>
  </g>
</svg>