<?xml version="1.0" encoding="UTF-8"?>
<svg id="Layer_1" data-name="Layer 1" xmlns="http://www.w3.org/2000/svg" viewBox="0 0 300.6 284.78">
  <defs>
    <style>
      .cls-1 {
        fill: #fff;
      }
    </style>
  </defs>
  <path class="cls-1" d="M119.21,0c3.03.85,6.31.84,9.5,1.41,20.48,3.69,37.17,15.83,49.07,33.18,1.08,1.58,4.02,7.74,5.21,8.05,1.19.31,7.06-4.18,8.96-5.13,25.2-12.57,56.45,1.69,63.34,29.97.94,3.85.9,7.72,2.11,11.23,13.24,3.42,24.9,10.21,33.05,21.78,24.12,34.27,2.69,81.89-37.17,86.24H47.34c-21.17-2.38-39.31-17.72-45.18-39.05-.84-3.03-1.21-6.15-2.05-9.16.24-3.76-.33-7.9,0-11.6.16-1.83,1.01-5.36,1.46-7.33,4.71-20.26,19.6-33.88,38.15-40.27.45-9.32,1.62-18.19,4.54-27.01C53.82,23.38,81.03,1.7,110.65.56l.94-.56h7.63,0ZM102.07,109.97c-11.4.92-10.73,20.35,2.73,18.14,10.16-1.67,8.23-19.02-2.73-18.14Z"/>
  <path class="cls-1" d="M256.71,8.76c-8.48,8.24,4.08,21.53,12.14,13.55,8.69-8.6-3.8-21.65-12.14-13.55ZM96.91,277.37v-31.43c4.72,7.04,11.13,8.61,17.01,1.83v29.6c0,.7,2.12,3.99,2.8,4.58,5.69,5.04,13.81,1.06,14.74-6.48,2.25-18.41-1.5-41.4.01-60.3-1.42-7.78-9.86-11.25-15.52-5.26-1.93,2.04-9.07,15.66-9.96,15.89-5.75-4.43-9.4-18.96-17.6-18.96-5.39,0-8.66,4.21-9.12,9.48-1.66,19.2,1.08,41.29.28,60.78,1.41,5.82,8.17,8.97,13.21,5.74,1.12-.72,3.89-4.22,4.13-5.47h.01ZM218.66,266.08c-5.71-1.06-14.21.78-20.24,0,4.06-8.36,13.67-10.52,19.74-17.3,14.54-16.23,4.46-42.63-17.13-41.92-11.54.38-22.44,10.58-22.61,22.92-.12,8.64,9.64,13.58,15.54,6.95,2.56-2.87,1.52-5.82,2.83-8.65,3.29-7.1,16.25-.31,7.81,8.73-6.24,6.68-13.87,7.65-20.15,17.48-5.46,8.54-11.52,28.16,3.18,30.02,5.11.65,26.7.75,31-.57,9.24-2.84,7.37-16.31.03-17.67h0ZM255.33,225.19h17.31c.83,0,3.61-2.02,4.31-2.84,4.5-5.31,2.07-13.74-4.57-15.19-3.93-.86-23.09-.86-27.18-.12-3.29.59-6.66,3.58-7.34,7.01-.86,4.29-.66,24.31-.13,29.15.29,2.63,1.53,5.13,3.69,6.54,6.32,4.16,14.28-2.42,21.25,2.92,3.78,2.89,3.62,8.05,0,10.98-7.96,6.44-22.52-5.89-26.13,6.99-4.12,14.7,20.15,14.57,28.66,12.12,9.27-2.68,17.05-11.71,17.74-21.82,1.21-17.64-10.87-28.11-27.05-28.67l-.55-7.06ZM152.49,266.22c-11.9,2.29-6.54,22.79,5.84,17.06,8.92-4.13,5.2-19.18-5.84-17.06Z"/>
  <path class="cls-1" d="M96.91,277.37c-.24,1.25-3.01,4.75-4.13,5.47-5.04,3.23-11.8.09-13.21-5.74.79-19.49-1.95-41.57-.28-60.78.46-5.28,3.72-9.48,9.12-9.48,8.19,0,11.84,14.53,17.6,18.96.89-.22,8.03-13.84,9.96-15.89,5.66-5.99,14.1-2.52,15.52,5.26-1.52,18.9,2.23,41.88-.01,60.3-.92,7.55-9.05,11.52-14.74,6.48-.68-.6-2.8-3.88-2.8-4.58v-29.6c-5.89,6.78-12.3,5.2-17.01-1.83v31.43h-.01Z"/>
  <path class="cls-1" d="M218.66,266.08c7.34,1.36,9.21,14.83-.03,17.67-4.3,1.32-25.89,1.22-31,.57-14.7-1.86-8.64-21.48-3.18-30.02,6.28-9.83,13.91-10.79,20.15-17.49,8.45-9.04-4.53-15.84-7.81-8.73-1.31,2.83-.28,5.77-2.83,8.65-5.89,6.63-15.65,1.68-15.54-6.95.16-12.34,11.07-22.54,22.61-22.92,21.59-.7,31.66,25.69,17.13,41.92-6.08,6.78-15.68,8.94-19.74,17.3,6.03.78,14.53-1.06,20.24,0h0Z"/>
  <path class="cls-1" d="M36.48,261.19c-.42,4.89.6,10.75-.05,15.51-1.36,10.01-16.47,10.48-17.57-2.36-1.61-18.79,1.21-40.11.08-59.16.46-3.51,3.22-6.99,6.51-7.88,4.35-1.18,18.36-.71,22.89.37,22.84,5.44,27.19,37.61,7.1,49.74-2.08,1.25-8.27,3.78-10.44,3.78h-8.51ZM36.48,242.89c6.35.77,14.13-.6,14.13-8.85s-7.78-9.62-14.13-8.85v17.7Z"/>
  <path class="cls-1" d="M255.33,225.19l.55,7.06c16.18.56,28.27,11.03,27.05,28.67-.69,10.11-8.47,19.14-17.74,21.82-8.5,2.46-32.78,2.59-28.66-12.12,3.61-12.88,18.17-.55,26.13-6.99,3.63-2.94,3.79-8.1,0-10.98-6.98-5.33-14.93,1.25-21.25-2.92-2.15-1.42-3.4-3.91-3.69-6.54-.53-4.84-.72-24.87.13-29.15.69-3.43,4.05-6.42,7.34-7.01,4.09-.73,23.24-.73,27.18.12,6.64,1.46,9.07,9.89,4.57,15.19-.7.83-3.48,2.84-4.31,2.84h-17.31Z"/>
  <path class="cls-1" d="M256.71,8.76c8.34-8.1,20.83,4.95,12.14,13.55-8.06,7.98-20.62-5.31-12.14-13.55Z"/>
  <path class="cls-1" d="M152.49,266.22c11.04-2.12,14.76,12.93,5.84,17.06-12.39,5.73-17.74-14.77-5.84-17.06Z"/>
  <path class="cls-1" d="M19.32,28.21c11.01-1.68,14,15.96,3.23,18.03-12.66,2.43-14.61-16.3-3.23-18.03Z"/>
</svg>