<?xml version="1.0" encoding="UTF-8"?>
<svg id="Layer_1" data-name="Layer 1" xmlns="http://www.w3.org/2000/svg" viewBox="0 0 208.63 191.67">
  <defs>
    <style>
      .cls-1 {
        fill: #fff;
      }
    </style>
  </defs>
  <g id="_2rRHN9.tif" data-name="2rRHN9.tif">
    <g>
      <path class="cls-1" d="M200.01,99.38c-.11,1.27-.68,3.83-.99,5.17-3.68,15.77-17.27,27.89-33.31,30-5,35.99-52.51,46.54-71.96,15.61-4.65,2.63-9.04,5.02-14.33,6.2-17.85,3.98-34.09-4.34-43-19.74-.66-1.13-1.42-3.66-2-4.35-.65-.76-3.38-1.54-4.53-2.19C-4.34,110.7,5.42,62.73,43.15,56.74c4.98-36.03,52.56-46.52,71.96-15.61,3.46-1.81,6.48-3.81,10.24-5.06,20.46-6.81,41.24,3.55,49.28,23.14,13.37,5.18,24.04,18.19,25.38,32.7.18,1.99.17,5.48,0,7.47ZM109.41,54.42c-1.19-1.19-2.2-4.62-3.19-6.34-12.84-22.33-46.91-16.63-51.65,8.32-.56,2.96-.06,7.71-2.22,9.74s-6.37,1.46-9.23,1.97c-25.46,4.5-31.63,38.56-8.85,51.61,2.39,1.37,6.43,2.23,8.19,3.76,1.93,1.67,2.69,5.84,4.03,8.29,7.63,13.94,25.46,18.36,39.01,10.14,3.53-2.14,6.64-7.26,10.87-6.63,3.95.59,4.61,5.07,6.26,7.94,11.07,19.27,39.38,18.5,49.28-1.36,2.72-5.46,1.95-8.5,3-13.81s6.86-4.15,10.82-4.86c25.49-4.58,31.61-38.74,8.85-51.61-2.38-1.34-6.45-2.25-8.19-3.76-1.93-1.67-2.69-5.84-4.03-8.29-8.35-15.27-28.57-18.89-42.05-7.96-3.09,2.51-6.39,7.36-10.9,2.85Z"/>
      <path class="cls-1" d="M185.45,0c7.72,1.43,13.06,6.88,14.56,14.57-.13,1.43.17,3.09,0,4.48-1.65,13.14-17.85,19.08-27.82,10.47-10.87-9.38-5.31-27.75,8.78-29.52h4.48ZM181.99,11.3c-7.03,1.47-4.88,12.54,2.45,11.04,6.93-1.42,5-12.59-2.45-11.04Z"/>
      <path class="cls-1" d="M23.7,157.77c22.65-2.49,25.43,31.85,3.25,33.52s-24.66-31.17-3.25-33.52ZM24.43,168.96c-7.03,1.47-4.88,12.54,2.45,11.04,6.93-1.42,5-12.59-2.45-11.04Z"/>
      <path class="cls-1" d="M114.41,11.67c7.41-1.52,9.45,9.6,2.45,11.04-7.41,1.52-9.45-9.6-2.45-11.04Z"/>
      <path class="cls-1" d="M24.8,34.09c7.41-1.52,9.45,9.6,2.45,11.04-7.41,1.52-9.45-9.6-2.45-11.04Z"/>
      <path class="cls-1" d="M80.81,168.59c7.41-1.52,9.45,9.6,2.45,11.04-7.41,1.52-9.45-9.6-2.45-11.04Z"/>
      <path class="cls-1" d="M78.06,47.79c7.41-1.52,9.45,9.6,2.45,11.04-7.41,1.52-9.45-9.6-2.45-11.04Z"/>
      <path class="cls-1" d="M136.81,59.11c7.41-1.52,9.45,9.6,2.45,11.04-7.41,1.52-9.45-9.6-2.45-11.04Z"/>
      <path class="cls-1" d="M15.23,132.83c7.41-1.52,9.45,9.6,2.45,11.04-7.41,1.52-9.45-9.6-2.45-11.04Z"/>
      <path class="cls-1" d="M159.21,170.94c7.41-1.52,9.45,9.6,2.45,11.04-7.41,1.52-9.45-9.6-2.45-11.04Z"/>
      <path class="cls-1" d="M69.61,127.17c7.41-1.52,9.45,9.6,2.45,11.04-7.41,1.52-9.45-9.6-2.45-11.04Z"/>
      <path class="cls-1" d="M125.6,132.83c7.41-1.52,9.45,9.6,2.45,11.04-7.41,1.52-9.45-9.6-2.45-11.04Z"/>
    </g>
  </g>
  <g>
    <path class="cls-1" d="M61.5,101.04h-8.47v12.93c0,1.85-.44,3.25-1.31,4.2s-1.97,1.43-3.3,1.43-2.51-.47-3.36-1.42c-.85-.94-1.28-2.33-1.28-4.16v-35.2c0-2.03.47-3.49,1.4-4.36s2.42-1.31,4.45-1.31h11.87c3.51,0,6.21.27,8.1.81,1.87.52,3.48,1.38,4.84,2.58,1.36,1.2,2.39,2.68,3.1,4.42s1.06,3.71,1.06,5.89c0,4.65-1.43,8.18-4.3,10.57s-7.13,3.6-12.8,3.6ZM59.26,80.11h-6.23v13.95h6.23c2.18,0,4-.23,5.47-.68s2.58-1.2,3.35-2.24c.77-1.04,1.15-2.4,1.15-4.08,0-2.01-.59-3.65-1.78-4.92-1.33-1.35-4.06-2.02-8.19-2.02Z"/>
    <path class="cls-1" d="M97.92,111.94l-7.32-29.09v31.52c0,1.74-.39,3.05-1.17,3.92-.78.87-1.81,1.31-3.1,1.31s-2.26-.43-3.05-1.29-1.18-2.17-1.18-3.94v-36.13c0-1.99.52-3.34,1.56-4.03,1.04-.7,2.44-1.04,4.21-1.04h2.87c1.72,0,2.97.16,3.75.47.78.31,1.36.87,1.73,1.68.37.81.8,2.13,1.28,3.96l6.63,25.01,6.63-25.01c.48-1.83.9-3.15,1.28-3.96.37-.81.95-1.37,1.73-1.68.78-.31,2.03-.47,3.75-.47h2.87c1.76,0,3.17.35,4.21,1.04,1.04.7,1.56,2.04,1.56,4.03v36.13c0,1.74-.39,3.05-1.17,3.92-.78.87-1.82,1.31-3.13,1.31-1.23,0-2.23-.44-3.02-1.31s-1.18-2.18-1.18-3.92v-31.52l-7.32,29.09c-.48,1.89-.87,3.28-1.17,4.16-.3.88-.86,1.69-1.67,2.41s-1.93,1.09-3.36,1.09c-1.08,0-1.99-.23-2.74-.7-.75-.47-1.33-1.06-1.74-1.79-.42-.73-.74-1.53-.98-2.41-.24-.88-.48-1.8-.73-2.76Z"/>
    <path class="cls-1" d="M154.26,114.87v-5.79h-15.64c-1.97,0-3.45-.45-4.44-1.34s-1.48-2.11-1.48-3.64c0-.39.07-.79.22-1.2.14-.4.36-.83.65-1.28s.59-.88.9-1.29c.31-.42.7-.92,1.15-1.53l16.51-22.08c1.08-1.45,1.97-2.51,2.66-3.16.7-.65,1.53-.98,2.51-.98,3.16,0,4.73,1.81,4.73,5.42v24.11h1.34c1.6,0,2.88.22,3.85.65.97.44,1.45,1.39,1.45,2.87,0,1.2-.39,2.08-1.18,2.63-.79.55-1.97.83-3.55.83h-1.9v5.79c0,1.6-.35,2.79-1.06,3.57-.71.78-1.65,1.17-2.83,1.17s-2.1-.4-2.82-1.2c-.72-.8-1.07-1.98-1.07-3.54ZM140.87,102.1h13.39v-18.1l-13.39,18.1Z"/>
  </g>
</svg>