<?xml version="1.0" encoding="UTF-8"?>
<svg id="Layer_1" data-name="Layer 1" xmlns="http://www.w3.org/2000/svg" xmlns:xlink="http://www.w3.org/1999/xlink" viewBox="0 0 150.8 215.42">
  <defs>
    <style>
      .cls-1 {
        fill: none;
      }

      .cls-2 {
        fill: #fff;
      }

      .cls-3 {
        clip-path: url(#clippath);
      }
    </style>
    <clipPath id="clippath">
      <rect class="cls-1" x="0" width="150.79" height="215.42"/>
    </clipPath>
  </defs>
  <g class="cls-3">
    <g>
      <path class="cls-2" d="M63.1.14c16.02,1.53,30.21,15.6,31.4,31.3l-.03,79.36c40.36,28.84,27.26,92.43-21.91,103.06-62.87,13.59-99.44-65.76-48.57-103.06l-.03-79.36C25.16,15.71,39.31,1.67,55.37.14c2-.19,5.73-.19,7.74,0ZM78.24,119l-.21-87.43c-4.17-20.63-33.89-20.37-37.67.36l-.12,86.89c-10.86,7.18-19.86,15.95-22.86,28.92-10.16,43.96,47.88,70.58,75.54,35.62,17.42-22.03,9.05-50.96-14.69-64.35Z"/>
      <path class="cls-2" d="M150.8,32.93v3.36c-1.24,3.02-3.15,5.37-6.7,5.85-9.86,1.31-22.47-.91-32.63.04-9.69-1.07-9.38-14.29-.02-15.15,10.32-.94,22.17.71,32.65.05,3.59.61,5.43,2.71,6.7,5.85h0Z"/>
      <path class="cls-2" d="M150.8,97.65v3.36c-1.28,2.79-2.83,5.39-6.27,5.85-10.66-.63-22.57.97-33.08.05-9.41-.81-9.86-14.13.45-15.14,9.99-.98,21.59.68,31.76.04,3.78.44,5.7,2.58,7.14,5.84h0Z"/>
      <path class="cls-2" d="M110.71,59.51c3.44-.56,13-.43,16.68-.11,10.57.89,9.84,13.87,1.68,15.12-3.52.54-13.85.37-17.61.04-9.29-.8-9.51-13.62-.74-15.05Z"/>
      <path class="cls-2" d="M67.02,128.29c20.54,5.04,29.8,28.93,17.68,46.16-12.29,17.47-38.6,17.5-50.92,0-12.32-17.5-2.73-40.91,17.75-46.37l-.03-65.52c1.35-8.99,13.56-9.26,15.44-.38l.08,66.12h0Z"/>
    </g>
  </g>
</svg>